<?xml version="1.0" encoding="UTF-8" standalone="no"?>
<!-- Created with Inkscape (http://www.inkscape.org/) -->

<svg
   xmlns:dc="http://purl.org/dc/elements/1.1/"
   xmlns:cc="http://creativecommons.org/ns#"
   xmlns:rdf="http://www.w3.org/1999/02/22-rdf-syntax-ns#"
   xmlns:svg="http://www.w3.org/2000/svg"
   xmlns="http://www.w3.org/2000/svg"
   xmlns:sodipodi="http://sodipodi.sourceforge.net/DTD/sodipodi-0.dtd"
   xmlns:inkscape="http://www.inkscape.org/namespaces/inkscape"
   version="1.1"
   id="svg29"
   xml:space="preserve"
   width="496"
   height="496"
   viewBox="0 0 496 496"
   sodipodi:docname="NintendoHomebrewLogo.svg"
   inkscape:version="0.92.2 5c3e80d, 2017-08-06"><metadata
     id="metadata35"><rdf:RDF><cc:Work
         rdf:about=""><dc:format>image/svg+xml</dc:format><dc:type
           rdf:resource="http://purl.org/dc/dcmitype/StillImage" /><dc:title></dc:title></cc:Work></rdf:RDF></metadata><defs
     id="defs33"><clipPath
       clipPathUnits="userSpaceOnUse"
       id="clipPath47"><path
         d="m 213,109.667 h 372 v 372 H 213 Z"
         id="path45"
         inkscape:connector-curvature="0" /></clipPath><clipPath
       clipPathUnits="userSpaceOnUse"
       id="clipPath63"><path
         d="M 321.358,418.69 H 476.643 V 130.644 H 321.358 Z"
         id="path61"
         inkscape:connector-curvature="0" /></clipPath><clipPath
       clipPathUnits="userSpaceOnUse"
       id="clipPath83"><path
         d="M 0,612 H 792 V 0 H 0 Z"
         id="path81"
         inkscape:connector-curvature="0" /></clipPath><clipPath
       clipPathUnits="userSpaceOnUse"
       id="clipPath91"><path
         d="m 387,242.495 h 9 v -9 h -9 z"
         id="path89"
         inkscape:connector-curvature="0" /></clipPath><clipPath
       clipPathUnits="userSpaceOnUse"
       id="clipPath107"><path
         d="m 396,221 h 16.745 V 204.255 H 396 Z"
         id="path105"
         inkscape:connector-curvature="0" /></clipPath><clipPath
       clipPathUnits="userSpaceOnUse"
       id="clipPath123"><path
         d="M 473.755,201.745 H 499.5 V 176 h -25.745 z"
         id="path121"
         inkscape:connector-curvature="0" /></clipPath><clipPath
       clipPathUnits="userSpaceOnUse"
       id="clipPath139"><path
         d="m 531.5,171.858 h 37.858 V 134 H 531.5 Z"
         id="path137"
         inkscape:connector-curvature="0" /></clipPath><clipPath
       clipPathUnits="userSpaceOnUse"
       id="clipPath155"><path
         d="m 556.5,231 h 18 v -18 h -18 z"
         id="path153"
         inkscape:connector-curvature="0" /></clipPath><clipPath
       clipPathUnits="userSpaceOnUse"
       id="clipPath171"><path
         d="m 438.5,141.745 h 16.745 V 125 H 438.5 Z"
         id="path169"
         inkscape:connector-curvature="0" /></clipPath><clipPath
       clipPathUnits="userSpaceOnUse"
       id="clipPath187"><path
         d="M 220.5,165 H 256 v -35.5 h -35.5 z"
         id="path185"
         inkscape:connector-curvature="0" /></clipPath><clipPath
       clipPathUnits="userSpaceOnUse"
       id="clipPath203"><path
         d="m 269.872,277.51 h 37.383 v -37.382 h -37.383 z"
         id="path201"
         inkscape:connector-curvature="0" /></clipPath><clipPath
       clipPathUnits="userSpaceOnUse"
       id="clipPath219"><path
         d="m 300.005,287.807 h 17.547 V 270.26 h -17.547 z"
         id="path217"
         inkscape:connector-curvature="0" /></clipPath><clipPath
       clipPathUnits="userSpaceOnUse"
       id="clipPath235"><path
         d="m 294,157.142 h 18.5 v -18.5 H 294 Z"
         id="path233"
         inkscape:connector-curvature="0" /></clipPath><clipPath
       clipPathUnits="userSpaceOnUse"
       id="clipPath251"><path
         d="M 315.358,181.5 H 327 v -11.642 h -11.642 z"
         id="path249"
         inkscape:connector-curvature="0" /></clipPath></defs><sodipodi:namedview
     pagecolor="#ffffff"
     bordercolor="#666666"
     borderopacity="1"
     objecttolerance="10"
     gridtolerance="10"
     guidetolerance="10"
     inkscape:pageopacity="0"
     inkscape:pageshadow="2"
     inkscape:window-width="1440"
     inkscape:window-height="775"
     id="namedview31"
     showgrid="false"
     inkscape:zoom="0.64"
     inkscape:cx="327.8386"
     inkscape:cy="254.46956"
     inkscape:window-x="0"
     inkscape:window-y="1"
     inkscape:window-maximized="1"
     inkscape:current-layer="layer2"
     inkscape:object-paths="false"
     inkscape:snap-text-baseline="false"
     inkscape:snap-page="false" /><g
     id="g37"
     inkscape:groupmode="layer"
     inkscape:label="3"
     transform="matrix(1.3333333,0,0,-1.3333333,0,496)"><path
       d="M 0,0 H 372 V 372 H 0 Z"
       style="fill:#437bbe;fill-opacity:1;fill-rule:nonzero;stroke:none"
       id="path39"
       inkscape:connector-curvature="0" /><g
       id="g41"
       transform="translate(-213,-109.667)"><g
         id="g43"
         clip-path="url(#clipPath47)"><g
           id="g49"
           transform="translate(499.5,237.5)"><path
             d="m 0,0 c -60.086,-2.095 -96.395,41.244 -100.375,46.167 -4.834,5.744 -38.13,43.97 -94.125,44.833 -47.049,0.726 -79.022,-25.402 -92,-38.352 v -192.481 h 372 V 39.133 C 73.03,26.209 43.775,1.526 0,0"
             style="fill:#609ad1;fill-opacity:1;fill-rule:nonzero;stroke:none"
             id="path51"
             inkscape:connector-curvature="0" /></g><g
           id="g53"
           transform="translate(206.875,283.667)"><path
             d="M 0,0 C 4.551,5.405 39.709,45.731 98,44.833 153.995,43.97 187.291,5.744 192.125,0 c 3.98,-4.923 40.289,-48.262 100.375,-46.167 54.968,1.916 87.07,40.365 91.75,46.167"
             style="fill:none;stroke:#67cbeb;stroke-width:7;stroke-linecap:butt;stroke-linejoin:miter;stroke-miterlimit:10;stroke-dasharray:none;stroke-opacity:1"
             id="path55"
             inkscape:connector-curvature="0" /></g><g
           id="g57"><g
             id="g59" /><g
             id="g71"><g
               clip-path="url(#clipPath63)"
               id="g69"
               style="opacity:0.27999902"><text
                 transform="matrix(1,0,0,-1,321.3579,196.8916)"
                 style="font-variant:normal;font-weight:bold;font-stretch:normal;font-size:264.99081421px;font-family:'Myriad Pro';-inkscape-font-specification:MyriadPro-Bold;writing-mode:lr-tb;fill:#ffffff;fill-opacity:1;fill-rule:nonzero;stroke:none"
                 id="text67"><tspan
                   x="0"
                   y="0"
                   id="tspan65" /></text>
</g></g></g></g></g><text
       transform="scale(1,-1)"
       style="font-variant:normal;font-weight:bold;font-stretch:normal;font-size:264.99081421px;font-family:'Myriad Pro';-inkscape-font-specification:MyriadPro-Bold;writing-mode:lr-tb;fill:#ffffff;fill-opacity:1;fill-rule:nonzero;stroke:none"
       id="text75"
       x="108.35792"
       y="-96.224602"><tspan
         x="108.35792"
         y="-96.224602"
         id="tspan73" /></text>
<g
       id="g77"
       transform="translate(-213,-109.667)"><g
         id="g79"
         clip-path="url(#clipPath83)"><g
           id="g85"><g
             id="g87" /><g
             id="g99"><g
               clip-path="url(#clipPath91)"
               id="g97"
               style="opacity:0.27999902"><g
                 transform="translate(392.7451,233.4951)"
                 id="g95"><path
                   d="m 0,0 h -2.49 c -1.798,0 -3.255,1.457 -3.255,3.255 v 2.49 C -5.745,7.543 -4.288,9 -2.49,9 H 0 C 1.797,9 3.255,7.543 3.255,5.745 V 3.255 C 3.255,1.457 1.797,0 0,0"
                   style="fill:#ffffff;fill-opacity:1;fill-rule:nonzero;stroke:none"
                   id="path93"
                   inkscape:connector-curvature="0" /></g></g></g></g><g
           id="g101"><g
             id="g103" /><g
             id="g115"><g
               clip-path="url(#clipPath107)"
               id="g113"
               style="opacity:0.27999902"><g
                 transform="translate(409.4902,204.2549)"
                 id="g111"><path
                   d="m 0,0 h -10.235 c -1.798,0 -3.255,1.458 -3.255,3.255 V 13.49 c 0,1.798 1.457,3.255 3.255,3.255 H 0 c 1.797,0 3.255,-1.457 3.255,-3.255 V 3.255 C 3.255,1.458 1.797,0 0,0"
                   style="fill:#ffffff;fill-opacity:1;fill-rule:nonzero;stroke:none"
                   id="path109"
                   inkscape:connector-curvature="0" /></g></g></g></g><g
           id="g117"><g
             id="g119" /><g
             id="g131"><g
               clip-path="url(#clipPath123)"
               id="g129"
               style="opacity:0.27999902"><g
                 transform="translate(496.2451,176)"
                 id="g127"><path
                   d="m 0,0 h -19.235 c -1.797,0 -3.255,1.457 -3.255,3.255 V 22.49 c 0,1.797 1.458,3.255 3.255,3.255 H 0 c 1.798,0 3.255,-1.458 3.255,-3.255 V 3.255 C 3.255,1.457 1.798,0 0,0"
                   style="fill:#ffffff;fill-opacity:1;fill-rule:nonzero;stroke:none"
                   id="path125"
                   inkscape:connector-curvature="0" /></g></g></g></g><g
           id="g133"><g
             id="g135" /><g
             id="g147"><g
               clip-path="url(#clipPath139)"
               id="g145"
               style="opacity:0.27999902"><g
                 transform="translate(566.1025,134)"
                 id="g143"><path
                   d="m 0,0 h -31.348 c -1.798,0 -3.255,1.457 -3.255,3.255 v 31.348 c 0,1.797 1.457,3.254 3.255,3.254 H 0 c 1.798,0 3.255,-1.457 3.255,-3.254 V 3.255 C 3.255,1.457 1.798,0 0,0"
                   style="fill:#ffffff;fill-opacity:1;fill-rule:nonzero;stroke:none"
                   id="path141"
                   inkscape:connector-curvature="0" /></g></g></g></g><g
           id="g149"><g
             id="g151" /><g
             id="g163"><g
               clip-path="url(#clipPath155)"
               id="g161"
               style="opacity:0.27999902"><g
                 transform="translate(559.7549,213)"
                 id="g159"><path
                   d="m 0,0 h 11.49 c 1.798,0 3.255,1.457 3.255,3.255 v 11.49 C 14.745,16.543 13.288,18 11.49,18 H 0 c -1.798,0 -3.255,-1.457 -3.255,-3.255 V 3.255 C -3.255,1.457 -1.798,0 0,0"
                   style="fill:#ffffff;fill-opacity:1;fill-rule:nonzero;stroke:none"
                   id="path157"
                   inkscape:connector-curvature="0" /></g></g></g></g><g
           id="g165"><g
             id="g167" /><g
             id="g179"><g
               clip-path="url(#clipPath171)"
               id="g177"
               style="opacity:0.27999902"><g
                 transform="translate(441.7549,125)"
                 id="g175"><path
                   d="m 0,0 h 10.235 c 1.797,0 3.255,1.457 3.255,3.255 V 13.49 c 0,1.797 -1.458,3.255 -3.255,3.255 H 0 c -1.798,0 -3.255,-1.458 -3.255,-3.255 V 3.255 C -3.255,1.457 -1.798,0 0,0"
                   style="fill:#ffffff;fill-opacity:1;fill-rule:nonzero;stroke:none"
                   id="path173"
                   inkscape:connector-curvature="0" /></g></g></g></g><g
           id="g181"><g
             id="g183" /><g
             id="g195"><g
               clip-path="url(#clipPath187)"
               id="g193"
               style="opacity:0.27999902"><g
                 transform="translate(252.7451,129.5)"
                 id="g191"><path
                   d="m 0,0 h -28.99 c -1.798,0 -3.255,1.457 -3.255,3.255 v 28.99 c 0,1.798 1.457,3.255 3.255,3.255 H 0 c 1.797,0 3.255,-1.457 3.255,-3.255 V 3.255 C 3.255,1.457 1.797,0 0,0"
                   style="fill:#ffffff;fill-opacity:1;fill-rule:nonzero;stroke:none"
                   id="path189"
                   inkscape:connector-curvature="0" /></g></g></g></g><g
           id="g197"><g
             id="g199" /><g
             id="g211"><g
               clip-path="url(#clipPath203)"
               id="g209"
               style="opacity:0.27999902"><g
                 transform="translate(304,240.1279)"
                 id="g207"><path
                   d="m 0,0 h -30.873 c -1.797,0 -3.254,1.457 -3.254,3.255 v 30.872 c 0,1.798 1.457,3.255 3.254,3.255 H 0 c 1.798,0 3.255,-1.457 3.255,-3.255 V 3.255 C 3.255,1.457 1.798,0 0,0"
                   style="fill:#ffffff;fill-opacity:1;fill-rule:nonzero;stroke:none"
                   id="path205"
                   inkscape:connector-curvature="0" /></g></g></g></g><g
           id="g213"><g
             id="g215" /><g
             id="g227"><g
               clip-path="url(#clipPath219)"
               id="g225"
               style="opacity:0.27999902"><g
                 transform="translate(303.2603,270.2598)"
                 id="g223"><path
                   d="m 0,0 h 11.036 c 1.798,0 3.256,1.458 3.256,3.256 v 11.036 c 0,1.798 -1.458,3.255 -3.256,3.255 H 0 c -1.798,0 -3.255,-1.457 -3.255,-3.255 V 3.256 C -3.255,1.458 -1.798,0 0,0"
                   style="fill:#ffffff;fill-opacity:1;fill-rule:nonzero;stroke:none"
                   id="path221"
                   inkscape:connector-curvature="0" /></g></g></g></g><g
           id="g229"><g
             id="g231" /><g
             id="g243"><g
               clip-path="url(#clipPath235)"
               id="g241"
               style="opacity:0.27999902"><g
                 transform="translate(309.2451,138.6426)"
                 id="g239"><path
                   d="m 0,0 h -11.99 c -1.798,0 -3.255,1.457 -3.255,3.255 v 11.989 c 0,1.798 1.457,3.256 3.255,3.256 H 0 c 1.797,0 3.255,-1.458 3.255,-3.256 V 3.255 C 3.255,1.457 1.797,0 0,0"
                   style="fill:#ffffff;fill-opacity:1;fill-rule:nonzero;stroke:none"
                   id="path237"
                   inkscape:connector-curvature="0" /></g></g></g></g><g
           id="g245"><g
             id="g247" /><g
             id="g259"><g
               clip-path="url(#clipPath251)"
               id="g257"
               style="opacity:0.27999902"><g
                 transform="translate(323.7451,169.8574)"
                 id="g255"><path
                   d="M 0,0 H -5.132 C -6.93,0 -8.387,1.458 -8.387,3.256 v 5.132 c 0,1.798 1.457,3.255 3.255,3.255 H 0 c 1.797,0 3.255,-1.457 3.255,-3.255 V 3.256 C 3.255,1.458 1.797,0 0,0"
                   style="fill:#ffffff;fill-opacity:1;fill-rule:nonzero;stroke:none"
                   id="path253"
                   inkscape:connector-curvature="0" /></g></g></g></g></g></g></g><g
     inkscape:groupmode="layer"
     id="layer2"
     inkscape:label="2"><rect
       style="opacity:0.3;fill:none;stroke:#ffffff;stroke-width:40;stroke-linejoin:round;stroke-miterlimit:4;stroke-dasharray:none"
       id="rect5471"
       width="180"
       height="157"
       x="157"
       y="269"
       rx="32" /><rect
       style="opacity:0.3;fill:none;stroke:#ffffff;stroke-width:40;stroke-linejoin:round;stroke-miterlimit:4;stroke-dasharray:none"
       id="rect5481"
       width="180"
       height="157"
       x="157"
       y="69"
       rx="32" /></g><g
     inkscape:groupmode="layer"
     id="layer1"
     inkscape:label="1"><rect
       style="opacity:1;fill:none;stroke:#ffffff;stroke-width:15;stroke-linejoin:round;stroke-miterlimit:4;stroke-dasharray:none"
       id="rect5405"
       width="136.5"
       height="120"
       x="117.75"
       y="-321"
       transform="matrix(1.3333333,0,0,1.3333333,0,496)"
       rx="24" /><rect
       style="opacity:1;fill:none;stroke:#ffffff;stroke-width:15;stroke-linejoin:round;stroke-miterlimit:4;stroke-dasharray:none"
       id="rect5449"
       width="136.5"
       height="120"
       x="117.75"
       y="-171"
       transform="matrix(1.3333333,0,0,1.3333333,0,496)"
       rx="24" /></g></svg>