<svg xmlns="http://www.w3.org/2000/svg" xmlns:xlink="http://www.w3.org/1999/xlink" width="1000" height="600">
	<path fill="#b056bb" d="M0 0h1000v600H0z"/>
	<path fill="#4d82ff" d="M0 0h1000v500H0z"/>
	<path fill="#4ac56a" d="M0 0h1000v400H0z"/>
	<path fill="#fff668" d="M0 0h1000v300H0z"/>
	<path fill="#ffb430" d="M0 0h1000v200H0z"/>
	<path fill="#e66161" d="M0 0h1000v100H0z"/>

	<path fill="#002D5D" d="M0 0h560L390 300l170 300H0Z"/>
	<g fill="#FFF">
		<g id="b">
			<path id="a" d="m210 190 v90 l45 20 45-20z" transform="rotate(22.5 210 190)"/>
			<use xlink:href="#a" transform="rotate(180 210, 300)"/>
		</g>
		<use xlink:href="#b" transform="rotate(45 210 300)"/>
		<use xlink:href="#b" transform="rotate(135 210 300)"/>
		<use xlink:href="#b" transform="rotate(270 210 300)"/>
	</g>
</svg>
