<svg xmlns="http://www.w3.org/2000/svg" xmlns:xlink="http://www.w3.org/1999/xlink" width="1050" height="600">
	<path fill="#333ebd" d="M0 0h1050v6000H0z"/>
	<path fill="#2c2c2c" d="M0 0h1050v480H0z"/>
	<path fill="#be18d6" d="M0 0h1050v360H0z"/>
	<path fill="#f5f5f5" d="M0 0h1050v240H0z"/>
	<path fill="#ff75a2" d="M0 0h1050v120H0z"/>

	<g transform="translate(218 23) scale(2.4 2.08)">
		<path d="m 80.678,46.91 c 0.972,0 1.95,0.037 2.935,0.113 14.004,1.078 29.268,8.475 44.387,21.998 15.12,-13.523 30.383,-20.92 44.387,-21.998 1.94047,-0.149207 3.88953,-0.149207 5.83,0 13.385,1.045 24.987,9.29 29.373,22.446 4.98,14.94 2.192,34.612 -9.164,58.531 -0.072,0.152 -0.137,0.3 -0.21,0.451 -3.017,6.31 -6.67,12.934 -10.972,19.846 -4.083,-0.82 -9.168,-2.635 -15.21,-5.926 3.01298,-4.6735 5.83432,-9.46781 8.457,-14.371 h 0.006 c 1.14211,-2.12669 2.23738,-4.27821 3.285,-6.453 10.462,-21.875 11.615,-38.054 8.627,-47.018 -2.614,-7.843 -7.2,-11.41 -15.17,-11.65 -1.138,-0.034 -2.346,0 -3.627,0.098 -10.247,0.788 -24.9,7.622 -39.957,22.68 L 128,91.313 122.344,85.657 C 107.287,70.599 92.634,63.765 82.387,62.977 72.14,62.189 66.578,65.565 63.59,74.53 c -0.05,0.148 -0.088,0.316 -0.135,0.468 -3.82261,0.06038 -7.625858,0.556589 -11.336,1.479 -1.93081,0.485934 -3.827298,1.099278 -5.677,1.836 0.383,-3.11 1.04,-6.06 1.968,-8.844 4.7,-14.096 17.683,-22.555 32.268,-22.559 z" stroke-width="0.5" stroke="#2c2c2c"/>
		<path d="m 80.678,46.91 c 0.972,0 1.95,0.037 2.935,0.113 14.004,1.078 29.268,8.475 44.387,21.998 15.12,-13.523 30.383,-20.92 44.387,-21.998 1.94047,-0.149207 3.88953,-0.149207 5.83,0 13.385,1.045 24.987,9.29 29.373,22.446 4.98,14.94 2.192,34.612 -9.164,58.531 -0.072,0.152 -0.137,0.3 -0.21,0.451 -3.017,6.31 -6.67,12.934 -10.972,19.846 -4.083,-0.82 -9.168,-2.635 -15.21,-5.926 3.01298,-4.6735 5.83432,-9.46781 8.457,-14.371 h 0.006 c 1.14211,-2.12669 2.23738,-4.27821 3.285,-6.453 10.462,-21.875 11.615,-38.054 8.627,-47.018 -2.614,-7.843 -7.2,-11.41 -15.17,-11.65 -1.138,-0.034 -2.346,0 -3.627,0.098 -10.247,0.788 -24.9,7.622 -39.957,22.68 L 128,91.313 122.344,85.657 C 107.287,70.599 92.634,63.765 82.387,62.977 72.14,62.189 66.578,65.565 63.59,74.53 c -0.05,0.148 -0.088,0.316 -0.135,0.468 -3.82261,0.06038 -7.625858,0.556589 -11.336,1.479 -1.93081,0.485934 -3.827298,1.099278 -5.677,1.836 0.383,-3.11 1.04,-6.06 1.968,-8.844 4.7,-14.096 17.683,-22.555 32.268,-22.559 z" fill="#d60270" />

		<path style="line-height:normal;font-variant-ligatures:normal;font-variant-position:normal;font-variant-caps:normal;font-variant-numeric:normal;font-variant-alternates:normal;font-feature-settings:normal;text-indent:0;text-align:start;text-decoration-line:none;text-decoration-style:solid;text-decoration-color:#000;text-transform:none;text-orientation:mixed;shape-padding:0;isolation:auto;mix-blend-mode:normal" d="M63.404 83.037c17.549-.265 39.041 9.931 64.596 33.998 22.327-21.027 41.565-31.506 57.764-33.613.117 4.286-.507 9.96-2.418 16.885-11.019 2.831-25.63 10.917-43.65 27.693 27.774 25.856 47.417 30.975 58.365 28.238C209.8 153.303 216 141.333 216 128c0-5.334-1.01-10.435-2.951-14.842 2.356-7.177 3.899-14.018 4.574-20.52C227.277 101.45 232 115.05 232 128c0 18.667-9.8 38.695-30.06 43.76-19.072 4.768-43.653-4.274-73.94-32.797-8.157 7.682-15.897 13.94-23.23 18.906a291.595 291.595 0 0 1-9.524-12.98c6.398-4.243 13.419-9.777 21.059-16.889-24.053-22.392-42.033-29.303-53.5-28.9a23.427 23.427 0 0 0-4.866.66C46.2 102.695 40 114.667 40 128c0 13.333 6.2 25.304 17.94 28.238 1.973.494 4.235.728 6.77.635 3.135 4.82 6.586 9.762 10.335 14.816-7.614 1.705-14.609 1.665-20.984.07C33.8 166.695 24 146.667 24 128s9.8-38.696 30.06-43.762a40.953 40.953 0 0 1 9.344-1.2z" overflow="visible" stroke="#2c2c2c" stroke-width="0.5" />
		<path style="line-height:normal;font-variant-ligatures:normal;font-variant-position:normal;font-variant-caps:normal;font-variant-numeric:normal;font-variant-alternates:normal;font-feature-settings:normal;text-indent:0;text-align:start;text-decoration-line:none;text-decoration-style:solid;text-decoration-color:#000;text-transform:none;text-orientation:mixed;shape-padding:0;isolation:auto;mix-blend-mode:normal" d="M63.404 83.037c17.549-.265 39.041 9.931 64.596 33.998 22.327-21.027 41.565-31.506 57.764-33.613.117 4.286-.507 9.96-2.418 16.885-11.019 2.831-25.63 10.917-43.65 27.693 27.774 25.856 47.417 30.975 58.365 28.238C209.8 153.303 216 141.333 216 128c0-5.334-1.01-10.435-2.951-14.842 2.356-7.177 3.899-14.018 4.574-20.52C227.277 101.45 232 115.05 232 128c0 18.667-9.8 38.695-30.06 43.76-19.072 4.768-43.653-4.274-73.94-32.797-8.157 7.682-15.897 13.94-23.23 18.906a291.595 291.595 0 0 1-9.524-12.98c6.398-4.243 13.419-9.777 21.059-16.889-24.053-22.392-42.033-29.303-53.5-28.9a23.427 23.427 0 0 0-4.866.66C46.2 102.695 40 114.667 40 128c0 13.333 6.2 25.304 17.94 28.238 1.973.494 4.235.728 6.77.635 3.135 4.82 6.586 9.762 10.335 14.816-7.614 1.705-14.609 1.665-20.984.07C33.8 166.695 24 146.667 24 128s9.8-38.696 30.06-43.762a40.953 40.953 0 0 1 9.344-1.2z" overflow="visible" fill="#9b4f96" />

		<path d="m 63.232,107.115 c 0.957,-0.017 2.014,0.038 3.168,0.178 1.49,4.438 3.393,9.186 5.817,14.254 1.049346,2.1748 2.146277,4.32632 3.29,6.453 h -0.005 c 10.298,19.293 27.235,42.417 52.498,68.504 9.43,-9.737 17.676,-19.052 24.877,-27.92 5.022,3.024 9.911,5.485 14.672,7.394 -9.464,11.896 -20.675,24.46 -33.893,37.678 l -5.656,5.656 -5.656,-5.656 c -32.472,-32.471 -53.023,-61.08 -64.56,-85.205 -0.074,-0.152 -0.138,-0.3 -0.21,-0.451 -2.353,-4.958 -4.323,-9.726 -5.947,-14.314 2.011,-3.127 4.799,-5.3 8.254,-6.165 0.935,-0.233 2.052,-0.383 3.351,-0.406 z" stroke="#2c2c2c" stroke-width="0.5" />
		<path d="m 63.232,107.115 c 0.957,-0.017 2.014,0.038 3.168,0.178 1.49,4.438 3.393,9.186 5.817,14.254 1.049346,2.1748 2.146277,4.32632 3.29,6.453 h -0.005 c 10.298,19.293 27.235,42.417 52.498,68.504 9.43,-9.737 17.676,-19.052 24.877,-27.92 5.022,3.024 9.911,5.485 14.672,7.394 -9.464,11.896 -20.675,24.46 -33.893,37.678 l -5.656,5.656 -5.656,-5.656 c -32.472,-32.471 -53.023,-61.08 -64.56,-85.205 -0.074,-0.152 -0.138,-0.3 -0.21,-0.451 -2.353,-4.958 -4.323,-9.726 -5.947,-14.314 2.011,-3.127 4.799,-5.3 8.254,-6.165 0.935,-0.233 2.052,-0.383 3.351,-0.406 z" fill="#0038a8" />
	</g>

	<style>
		text {
			font: 60px Lato;
			text-anchor: middle;
			dominant-baseline: middle;
			opacity: 0.7;
			font-weight: 300;
		}

		.i { font-style: italic }

		.small {
			font-size: 70%;
			opacity: 0.8;
		}
	</style>
	<text x="50%" y="70" class=""><tspan class="small">https://</tspan>LillySong.bi<tspan class="small">/</tspan></text>
	<text x="50%" y="550" class=""><tspan class="small">https://LillySong.bi/</tspan>LillySongBio</text>
</svg>
